<?xml version="1.0" encoding="UTF-8" standalone="no"?>
<!DOCTYPE svg PUBLIC "-//W3C//DTD SVG 1.1//EN"
 "http://www.w3.org/Graphics/SVG/1.1/DTD/svg11.dtd">
<!-- Generated by graphviz version 2.38.0 (20140413.2041)
 -->
<!-- Title: %3 Pages: 1 -->
<svg width="653pt" height="152pt"
 viewBox="0.00 0.00 653.18 152.00" xmlns="http://www.w3.org/2000/svg" xmlns:xlink="http://www.w3.org/1999/xlink">
<g id="graph0" class="graph" transform="scale(1 1) rotate(0) translate(4 148)">
<title>%3</title>
<polygon fill="white" stroke="none" points="-4,4 -4,-148 649.181,-148 649.181,4 -4,4"/>
<!-- 0 -->
<g id="node1" class="node"><title>0</title>
<ellipse fill="none" stroke="black" cx="38.3466" cy="-72" rx="38.1938" ry="18"/>
<text text-anchor="middle" x="38.3466" y="-68.3" font-family="Times,serif" font-size="14.00">START</text>
</g>
<!-- 10 -->
<g id="node2" class="node"><title>10</title>
<ellipse fill="none" stroke="black" cx="139.693" cy="-72" rx="27" ry="18"/>
<text text-anchor="middle" x="139.693" y="-68.3" font-family="Times,serif" font-size="14.00">A</text>
</g>
<!-- 0&#45;&gt;10 -->
<g id="edge1" class="edge"><title>0&#45;&gt;10</title>
<path fill="none" stroke="black" d="M76.9053,-72C85.2505,-72 94.0815,-72 102.376,-72"/>
<polygon fill="black" stroke="black" points="102.518,-75.5001 112.518,-72 102.518,-68.5001 102.518,-75.5001"/>
</g>
<!-- 11 -->
<g id="node3" class="node"><title>11</title>
<ellipse fill="none" stroke="black" cx="237.14" cy="-126" rx="29.795" ry="18"/>
<text text-anchor="middle" x="237.14" y="-122.3" font-family="Times,serif" font-size="14.00">ser A</text>
</g>
<!-- 10&#45;&gt;11 -->
<g id="edge2" class="edge"><title>10&#45;&gt;11</title>
<path fill="none" stroke="black" d="M160.935,-83.452C173.986,-90.8358 191.197,-100.573 205.86,-108.869"/>
<polygon fill="black" stroke="black" points="204.174,-111.936 214.601,-113.814 207.621,-105.844 204.174,-111.936"/>
</g>
<!-- 12 -->
<g id="node4" class="node"><title>12</title>
<ellipse fill="none" stroke="black" cx="237.14" cy="-72" rx="34.394" ry="18"/>
<text text-anchor="middle" x="237.14" y="-68.3" font-family="Times,serif" font-size="14.00">fork A</text>
</g>
<!-- 10&#45;&gt;12 -->
<g id="edge3" class="edge"><title>10&#45;&gt;12</title>
<path fill="none" stroke="black" d="M166.774,-72C174.709,-72 183.656,-72 192.421,-72"/>
<polygon fill="black" stroke="black" points="192.556,-75.5001 202.556,-72 192.556,-68.5001 192.556,-75.5001"/>
</g>
<!-- 13 -->
<g id="node5" class="node"><title>13</title>
<ellipse fill="none" stroke="black" cx="237.14" cy="-18" rx="33.5952" ry="18"/>
<text text-anchor="middle" x="237.14" y="-14.3" font-family="Times,serif" font-size="14.00">clus A</text>
</g>
<!-- 10&#45;&gt;13 -->
<g id="edge4" class="edge"><title>10&#45;&gt;13</title>
<path fill="none" stroke="black" d="M160.935,-60.548C173.504,-53.437 189.931,-44.1434 204.225,-36.0564"/>
<polygon fill="black" stroke="black" points="206.268,-38.922 213.248,-30.9515 202.821,-32.8294 206.268,-38.922"/>
</g>
<!-- 20 -->
<g id="node6" class="node"><title>20</title>
<ellipse fill="none" stroke="black" cx="334.587" cy="-72" rx="27" ry="18"/>
<text text-anchor="middle" x="334.587" y="-68.3" font-family="Times,serif" font-size="14.00">B</text>
</g>
<!-- 11&#45;&gt;20 -->
<g id="edge5" class="edge"><title>11&#45;&gt;20</title>
<path fill="none" stroke="black" d="M259.799,-113.747C272.973,-106.293 289.971,-96.6764 304.331,-88.5521"/>
<polygon fill="black" stroke="black" points="306.34,-91.4369 313.32,-83.4665 302.893,-85.3444 306.34,-91.4369"/>
</g>
<!-- 12&#45;&gt;20 -->
<g id="edge6" class="edge"><title>12&#45;&gt;20</title>
<path fill="none" stroke="black" d="M271.791,-72C280.018,-72 288.858,-72 297.206,-72"/>
<polygon fill="black" stroke="black" points="297.434,-75.5001 307.434,-72 297.434,-68.5001 297.434,-75.5001"/>
</g>
<!-- 13&#45;&gt;20 -->
<g id="edge7" class="edge"><title>13&#45;&gt;20</title>
<path fill="none" stroke="black" d="M261.245,-31.0719C274.279,-38.4461 290.688,-47.7292 304.581,-55.5895"/>
<polygon fill="black" stroke="black" points="302.86,-58.637 313.287,-60.5149 306.307,-52.5445 302.86,-58.637"/>
</g>
<!-- 21 -->
<g id="node7" class="node"><title>21</title>
<ellipse fill="none" stroke="black" cx="431.384" cy="-126" rx="29.4969" ry="18"/>
<text text-anchor="middle" x="431.384" y="-122.3" font-family="Times,serif" font-size="14.00">ser B</text>
</g>
<!-- 20&#45;&gt;21 -->
<g id="edge8" class="edge"><title>20&#45;&gt;21</title>
<path fill="none" stroke="black" d="M355.691,-83.452C368.743,-90.8871 385.985,-100.708 400.613,-109.041"/>
<polygon fill="black" stroke="black" points="398.902,-112.095 409.323,-114.003 402.367,-106.012 398.902,-112.095"/>
</g>
<!-- 22 -->
<g id="node8" class="node"><title>22</title>
<ellipse fill="none" stroke="black" cx="431.384" cy="-72" rx="33.5952" ry="18"/>
<text text-anchor="middle" x="431.384" y="-68.3" font-family="Times,serif" font-size="14.00">fork B</text>
</g>
<!-- 20&#45;&gt;22 -->
<g id="edge9" class="edge"><title>20&#45;&gt;22</title>
<path fill="none" stroke="black" d="M361.742,-72C369.698,-72 378.662,-72 387.422,-72"/>
<polygon fill="black" stroke="black" points="387.539,-75.5001 397.539,-72 387.539,-68.5001 387.539,-75.5001"/>
</g>
<!-- 23 -->
<g id="node9" class="node"><title>23</title>
<ellipse fill="none" stroke="black" cx="431.384" cy="-18" rx="33.2948" ry="18"/>
<text text-anchor="middle" x="431.384" y="-14.3" font-family="Times,serif" font-size="14.00">clus B</text>
</g>
<!-- 20&#45;&gt;23 -->
<g id="edge10" class="edge"><title>20&#45;&gt;23</title>
<path fill="none" stroke="black" d="M355.691,-60.548C368.264,-53.3862 384.723,-44.0105 398.99,-35.8833"/>
<polygon fill="black" stroke="black" points="401.029,-38.7497 407.986,-30.7588 397.565,-32.6673 401.029,-38.7497"/>
</g>
<!-- 30 -->
<g id="node10" class="node"><title>30</title>
<ellipse fill="none" stroke="black" cx="528.181" cy="-72" rx="27" ry="18"/>
<text text-anchor="middle" x="528.181" y="-68.3" font-family="Times,serif" font-size="14.00">C</text>
</g>
<!-- 21&#45;&gt;30 -->
<g id="edge11" class="edge"><title>21&#45;&gt;30</title>
<path fill="none" stroke="black" d="M453.423,-114.016C466.578,-106.522 483.705,-96.7656 498.144,-88.5408"/>
<polygon fill="black" stroke="black" points="500.218,-91.3872 507.175,-83.3963 496.753,-85.3048 500.218,-91.3872"/>
</g>
<!-- 22&#45;&gt;30 -->
<g id="edge12" class="edge"><title>22&#45;&gt;30</title>
<path fill="none" stroke="black" d="M465.273,-72C473.47,-72 482.308,-72 490.668,-72"/>
<polygon fill="black" stroke="black" points="490.917,-75.5001 500.917,-72 490.917,-68.5001 490.917,-75.5001"/>
</g>
<!-- 23&#45;&gt;30 -->
<g id="edge13" class="edge"><title>23&#45;&gt;30</title>
<path fill="none" stroke="black" d="M454.85,-30.7972C467.875,-38.2167 484.411,-47.6365 498.384,-55.596"/>
<polygon fill="black" stroke="black" points="496.712,-58.6715 507.133,-60.58 500.176,-52.5891 496.712,-58.6715"/>
</g>
<!-- 100 -->
<g id="node11" class="node"><title>100</title>
<ellipse fill="none" stroke="black" cx="618.181" cy="-72" rx="27" ry="18"/>
<text text-anchor="middle" x="618.181" y="-68.3" font-family="Times,serif" font-size="14.00">...</text>
</g>
<!-- 30&#45;&gt;100 -->
<g id="edge14" class="edge"><title>30&#45;&gt;100</title>
<path fill="none" stroke="black" d="M555.584,-72C563.574,-72 572.492,-72 581.005,-72"/>
<polygon fill="black" stroke="black" points="581.1,-75.5001 591.1,-72 581.1,-68.5001 581.1,-75.5001"/>
</g>
</g>
</svg>
