<?xml version="1.0" encoding="UTF-8" standalone="no"?>
<!DOCTYPE svg PUBLIC "-//W3C//DTD SVG 1.1//EN"
 "http://www.w3.org/Graphics/SVG/1.1/DTD/svg11.dtd">
<!-- Generated by graphviz version 2.38.0 (20140413.2041)
 -->
<!-- Title: %3 Pages: 1 -->
<svg width="1034pt" height="158pt"
 viewBox="0.00 0.00 1033.73 158.48" xmlns="http://www.w3.org/2000/svg" xmlns:xlink="http://www.w3.org/1999/xlink">
<g id="graph0" class="graph" transform="scale(1 1) rotate(0) translate(4 154.477)">
<title>%3</title>
<polygon fill="white" stroke="none" points="-4,4 -4,-154.477 1029.73,-154.477 1029.73,4 -4,4"/>
<!-- 0 -->
<g id="node1" class="node"><title>0</title>
<ellipse fill="none" stroke="black" cx="38.3466" cy="-71.4767" rx="38.1938" ry="18"/>
<text text-anchor="middle" x="38.3466" y="-67.7767" font-family="Times,serif" font-size="14.00">START</text>
</g>
<!-- 1 -->
<g id="node2" class="node"><title>1</title>
<ellipse fill="none" stroke="black" cx="147.49" cy="-71.4767" rx="33.5952" ry="18"/>
<text text-anchor="middle" x="147.49" y="-67.7767" font-family="Times,serif" font-size="14.00">genx()</text>
</g>
<!-- 0&#45;&gt;1 -->
<g id="edge1" class="edge"><title>0&#45;&gt;1</title>
<path fill="none" stroke="black" d="M76.8202,-71.4767C85.4082,-71.4767 94.6047,-71.4767 103.408,-71.4767"/>
<polygon fill="black" stroke="black" points="103.501,-74.9768 113.501,-71.4767 103.501,-67.9768 103.501,-74.9768"/>
</g>
<!-- 2 -->
<g id="node3" class="node"><title>2</title>
<ellipse fill="none" stroke="black" cx="298.128" cy="-105.477" rx="43.6818" ry="37.4533"/>
<text text-anchor="middle" x="298.128" y="-116.777" font-family="Times,serif" font-size="14.00">ceiling()</text>
<text text-anchor="middle" x="298.128" y="-101.777" font-family="Times,serif" font-size="14.00">t=map</text>
<text text-anchor="middle" x="298.128" y="-86.7767" font-family="Times,serif" font-size="14.00">cost=4n</text>
</g>
<!-- 1&#45;&gt;2 -->
<g id="edge2" class="edge"><title>1&#45;&gt;2</title>
<path fill="none" stroke="black" d="M178.561,-78.6372C185.373,-80.2434 192.576,-81.9296 199.287,-83.4767 214.174,-86.9087 230.351,-90.5728 245.185,-93.9066"/>
<polygon fill="black" stroke="black" points="244.683,-97.381 255.207,-96.1549 246.216,-90.5508 244.683,-97.381"/>
<text text-anchor="middle" x="217.787" y="-125.277" font-family="Times,serif" font-size="14.00">x</text>
<text text-anchor="middle" x="217.787" y="-110.277" font-family="Times,serif" font-size="14.00">n=20</text>
<text text-anchor="middle" x="217.787" y="-95.2767" font-family="Times,serif" font-size="14.00">size=8</text>
</g>
<!-- 3 -->
<g id="node5" class="node"><title>3</title>
<ellipse fill="none" stroke="black" cx="405.93" cy="-37.4767" rx="45.9239" ry="37.4533"/>
<text text-anchor="middle" x="405.93" y="-48.7767" font-family="Times,serif" font-size="14.00">mean()</text>
<text text-anchor="middle" x="405.93" y="-33.7767" font-family="Times,serif" font-size="14.00">t=reduce</text>
<text text-anchor="middle" x="405.93" y="-18.7767" font-family="Times,serif" font-size="14.00">cost=3n</text>
</g>
<!-- 1&#45;&gt;3 -->
<g id="edge4" class="edge"><title>1&#45;&gt;3</title>
<path fill="none" stroke="black" d="M164.371,-55.8356C173.706,-47.7623 186.216,-38.7326 199.287,-34.4767 248.844,-18.3414 308.744,-21.5813 351.08,-27.3475"/>
<polygon fill="black" stroke="black" points="350.779,-30.8404 361.179,-28.8158 351.786,-23.9132 350.779,-30.8404"/>
<text text-anchor="middle" x="217.787" y="-68.2767" font-family="Times,serif" font-size="14.00">x</text>
<text text-anchor="middle" x="217.787" y="-53.2767" font-family="Times,serif" font-size="14.00">n=20</text>
<text text-anchor="middle" x="217.787" y="-38.2767" font-family="Times,serif" font-size="14.00">size=8</text>
</g>
<!-- 6 -->
<g id="node4" class="node"><title>6</title>
<ellipse fill="none" stroke="black" cx="525.047" cy="-105.477" rx="55.3091" ry="37.4533"/>
<text text-anchor="middle" x="525.047" y="-116.777" font-family="Times,serif" font-size="14.00">as.integer()</text>
<text text-anchor="middle" x="525.047" y="-101.777" font-family="Times,serif" font-size="14.00">t=map</text>
<text text-anchor="middle" x="525.047" y="-86.7767" font-family="Times,serif" font-size="14.00">cost=2n</text>
</g>
<!-- 2&#45;&gt;6 -->
<g id="edge3" class="edge"><title>2&#45;&gt;6</title>
<path fill="none" stroke="black" d="M342.228,-105.477C375.341,-105.477 421.616,-105.477 459.194,-105.477"/>
<polygon fill="black" stroke="black" points="459.544,-108.977 469.544,-105.477 459.544,-101.977 459.544,-108.977"/>
<text text-anchor="middle" x="405.93" y="-139.277" font-family="Times,serif" font-size="14.00">x2</text>
<text text-anchor="middle" x="405.93" y="-124.277" font-family="Times,serif" font-size="14.00">n=20</text>
<text text-anchor="middle" x="405.93" y="-109.277" font-family="Times,serif" font-size="14.00">size=8</text>
</g>
<!-- 4 -->
<g id="node6" class="node"><title>4</title>
<ellipse fill="none" stroke="black" cx="701.284" cy="-98.4767" rx="48.1667" ry="26.7407"/>
<text text-anchor="middle" x="701.284" y="-102.277" font-family="Times,serif" font-size="14.00">f()</text>
<text text-anchor="middle" x="701.284" y="-87.2767" font-family="Times,serif" font-size="14.00">t=general</text>
</g>
<!-- 6&#45;&gt;4 -->
<g id="edge5" class="edge"><title>6&#45;&gt;4</title>
<path fill="none" stroke="black" d="M580.221,-103.3C600.219,-102.497 622.932,-101.584 643.181,-100.771"/>
<polygon fill="black" stroke="black" points="643.357,-104.267 653.208,-100.368 643.076,-97.2723 643.357,-104.267"/>
<text text-anchor="middle" x="616.701" y="-135.277" font-family="Times,serif" font-size="14.00">x3</text>
<text text-anchor="middle" x="616.701" y="-120.277" font-family="Times,serif" font-size="14.00">n=20</text>
<text text-anchor="middle" x="616.701" y="-105.277" font-family="Times,serif" font-size="14.00">size=4</text>
</g>
<!-- 5 -->
<g id="node7" class="node"><title>5</title>
<ellipse fill="none" stroke="black" cx="883.451" cy="-60.4767" rx="48.1667" ry="26.7407"/>
<text text-anchor="middle" x="883.451" y="-64.2767" font-family="Times,serif" font-size="14.00">fzy()</text>
<text text-anchor="middle" x="883.451" y="-49.2767" font-family="Times,serif" font-size="14.00">t=general</text>
</g>
<!-- 3&#45;&gt;5 -->
<g id="edge7" class="edge"><title>3&#45;&gt;5</title>
<path fill="none" stroke="black" d="M452.095,-39.6612C539.107,-43.8698 729.81,-53.0937 825.424,-57.7184"/>
<polygon fill="black" stroke="black" points="825.33,-61.2178 835.487,-58.2051 825.668,-54.226 825.33,-61.2178"/>
<text text-anchor="middle" x="616.701" y="-82.2767" font-family="Times,serif" font-size="14.00">z</text>
<text text-anchor="middle" x="616.701" y="-67.2767" font-family="Times,serif" font-size="14.00">n=1</text>
<text text-anchor="middle" x="616.701" y="-52.2767" font-family="Times,serif" font-size="14.00">size=8</text>
</g>
<!-- 4&#45;&gt;5 -->
<g id="edge6" class="edge"><title>4&#45;&gt;5</title>
<path fill="none" stroke="black" d="M746.82,-89.0834C771.382,-83.9029 802.075,-77.4293 828.047,-71.9512"/>
<polygon fill="black" stroke="black" points="829.053,-75.3161 838.116,-69.8276 827.609,-68.4668 829.053,-75.3161"/>
<text text-anchor="middle" x="792.367" y="-118.277" font-family="Times,serif" font-size="14.00">y</text>
<text text-anchor="middle" x="792.367" y="-103.277" font-family="Times,serif" font-size="14.00">n=1</text>
<text text-anchor="middle" x="792.367" y="-88.2767" font-family="Times,serif" font-size="14.00">size=300</text>
</g>
<!-- 10 -->
<g id="node8" class="node"><title>10</title>
<ellipse fill="none" stroke="black" cx="997.131" cy="-60.4767" rx="28.6953" ry="18"/>
<text text-anchor="middle" x="997.131" y="-56.7767" font-family="Times,serif" font-size="14.00">END</text>
</g>
<!-- 5&#45;&gt;10 -->
<g id="edge8" class="edge"><title>5&#45;&gt;10</title>
<path fill="none" stroke="black" d="M931.813,-60.4767C940.689,-60.4767 949.858,-60.4767 958.393,-60.4767"/>
<polygon fill="black" stroke="black" points="958.429,-63.9768 968.429,-60.4767 958.429,-56.9768 958.429,-63.9768"/>
</g>
</g>
</svg>
