<?xml version="1.0" encoding="UTF-8" standalone="no"?>
<!DOCTYPE svg PUBLIC "-//W3C//DTD SVG 1.1//EN"
 "http://www.w3.org/Graphics/SVG/1.1/DTD/svg11.dtd">
<!-- Generated by graphviz version 2.38.0 (20140413.2041)
 -->
<!-- Title: %3 Pages: 1 -->
<svg width="648pt" height="115pt"
 viewBox="0.00 0.00 648.31 114.74" xmlns="http://www.w3.org/2000/svg" xmlns:xlink="http://www.w3.org/1999/xlink">
<g id="graph0" class="graph" transform="scale(1 1) rotate(0) translate(4 110.74)">
<title>%3</title>
<polygon fill="white" stroke="none" points="-4,4 -4,-110.74 644.313,-110.74 644.313,4 -4,4"/>
<!-- 0 -->
<g id="node1" class="node"><title>0</title>
<ellipse fill="none" stroke="black" cx="38.3466" cy="-47.8701" rx="38.1938" ry="18"/>
<text text-anchor="middle" x="38.3466" y="-44.1701" font-family="Times,serif" font-size="14.00">START</text>
</g>
<!-- 1 -->
<g id="node2" class="node"><title>1</title>
<ellipse fill="none" stroke="black" cx="147.49" cy="-47.8701" rx="33.5952" ry="18"/>
<text text-anchor="middle" x="147.49" y="-44.1701" font-family="Times,serif" font-size="14.00">genx()</text>
</g>
<!-- 0&#45;&gt;1 -->
<g id="edge1" class="edge"><title>0&#45;&gt;1</title>
<path fill="none" stroke="black" d="M76.8202,-47.8701C85.4082,-47.8701 94.6047,-47.8701 103.408,-47.8701"/>
<polygon fill="black" stroke="black" points="103.501,-51.3702 113.501,-47.8701 103.501,-44.3702 103.501,-51.3702"/>
</g>
<!-- 2 -->
<g id="node3" class="node"><title>2</title>
<ellipse fill="none" stroke="black" cx="253.279" cy="-79.8701" rx="28.9828" ry="26.7407"/>
<text text-anchor="middle" x="253.279" y="-83.6701" font-family="Times,serif" font-size="14.00">g()</text>
<text text-anchor="middle" x="253.279" y="-68.6701" font-family="Times,serif" font-size="14.00">map</text>
</g>
<!-- 1&#45;&gt;2 -->
<g id="edge2" class="edge"><title>1&#45;&gt;2</title>
<path fill="none" stroke="black" d="M177.126,-56.6989C189.056,-60.3774 203.055,-64.6936 215.717,-68.5973"/>
<polygon fill="black" stroke="black" points="214.932,-72.0177 225.519,-71.6195 216.994,-65.3285 214.932,-72.0177"/>
<text text-anchor="middle" x="202.787" y="-68.6701" font-family="Times,serif" font-size="14.00">x</text>
</g>
<!-- 3 -->
<g id="node4" class="node"><title>3</title>
<ellipse fill="none" stroke="black" cx="337.747" cy="-26.8701" rx="37.4533" ry="26.7407"/>
<text text-anchor="middle" x="337.747" y="-30.6701" font-family="Times,serif" font-size="14.00">h()</text>
<text text-anchor="middle" x="337.747" y="-15.6701" font-family="Times,serif" font-size="14.00">reduce</text>
</g>
<!-- 1&#45;&gt;3 -->
<g id="edge3" class="edge"><title>1&#45;&gt;3</title>
<path fill="none" stroke="black" d="M180.853,-44.26C211.054,-40.8911 256.443,-35.8279 290.469,-32.0323"/>
<polygon fill="black" stroke="black" points="291.084,-35.4855 300.634,-30.8984 290.308,-28.5287 291.084,-35.4855"/>
<text text-anchor="middle" x="202.787" y="-46.6701" font-family="Times,serif" font-size="14.00">x</text>
</g>
<!-- 4 -->
<g id="node5" class="node"><title>4</title>
<ellipse fill="none" stroke="black" cx="420.223" cy="-77.8701" rx="27" ry="18"/>
<text text-anchor="middle" x="420.223" y="-74.1701" font-family="Times,serif" font-size="14.00">f()</text>
</g>
<!-- 2&#45;&gt;4 -->
<g id="edge4" class="edge"><title>2&#45;&gt;4</title>
<path fill="none" stroke="black" d="M282.634,-79.5262C310.401,-79.1896 352.821,-78.6752 383.014,-78.3091"/>
<polygon fill="black" stroke="black" points="383.182,-81.8074 393.139,-78.1863 383.097,-74.8079 383.182,-81.8074"/>
<text text-anchor="middle" x="337.747" y="-82.6701" font-family="Times,serif" font-size="14.00">gx</text>
</g>
<!-- 5 -->
<g id="node6" class="node"><title>5</title>
<ellipse fill="none" stroke="black" cx="518.171" cy="-47.8701" rx="27.8951" ry="18"/>
<text text-anchor="middle" x="518.171" y="-44.1701" font-family="Times,serif" font-size="14.00">fzy()</text>
</g>
<!-- 3&#45;&gt;5 -->
<g id="edge6" class="edge"><title>3&#45;&gt;5</title>
<path fill="none" stroke="black" d="M375.484,-29.1192C396.532,-30.6074 423.415,-32.846 447.223,-35.8701 458.246,-37.2701 470.182,-39.1729 481.021,-41.0504"/>
<polygon fill="black" stroke="black" points="480.553,-44.522 491.011,-42.8256 481.778,-37.63 480.553,-44.522"/>
<text text-anchor="middle" x="420.223" y="-39.6701" font-family="Times,serif" font-size="14.00">z</text>
</g>
<!-- 4&#45;&gt;5 -->
<g id="edge5" class="edge"><title>4&#45;&gt;5</title>
<path fill="none" stroke="black" d="M444.941,-70.4543C456.413,-66.8672 470.397,-62.4948 482.994,-58.5562"/>
<polygon fill="black" stroke="black" points="484.225,-61.8385 492.725,-55.5137 482.136,-55.1575 484.225,-61.8385"/>
<text text-anchor="middle" x="468.723" y="-67.6701" font-family="Times,serif" font-size="14.00">y</text>
</g>
<!-- 10 -->
<g id="node7" class="node"><title>10</title>
<ellipse fill="none" stroke="black" cx="611.716" cy="-47.8701" rx="28.6953" ry="18"/>
<text text-anchor="middle" x="611.716" y="-44.1701" font-family="Times,serif" font-size="14.00">END</text>
</g>
<!-- 5&#45;&gt;10 -->
<g id="edge7" class="edge"><title>5&#45;&gt;10</title>
<path fill="none" stroke="black" d="M546.142,-47.8701C554.482,-47.8701 563.829,-47.8701 572.767,-47.8701"/>
<polygon fill="black" stroke="black" points="572.985,-51.3702 582.985,-47.8701 572.985,-44.3702 572.985,-51.3702"/>
</g>
</g>
</svg>
